<svg xmlns="http://www.w3.org/2000/svg" xmlns:xlink="http://www.w3.org/1999/xlink" width="500" zoomAndPan="magnify" viewBox="0 0 375 374.999991" height="500" preserveAspectRatio="xMidYMid meet" version="1.0"><defs><clipPath id="5b78c4a627"><path d="M 75.628906 51.695312 L 299.128906 51.695312 L 299.128906 323.195312 L 75.628906 323.195312 Z M 75.628906 51.695312 " clip-rule="nonzero"/></clipPath><clipPath id="31fcbe48e3"><path d="M 181.421875 51.695312 L 299.128906 51.695312 L 299.128906 195.695312 L 181.421875 195.695312 Z M 181.421875 51.695312 " clip-rule="nonzero"/></clipPath></defs><g clip-path="url(#5b78c4a627)"><path fill="#ff7f00" d="M 188.9375 78.613281 C 188.5 79.03125 187.90625 79.289062 187.257812 79.289062 C 185.960938 79.289062 184.890625 78.261719 184.835938 76.964844 L 184.566406 70.53125 C 185.644531 70.496094 186.726562 70.480469 187.808594 70.480469 C 188.523438 70.480469 189.242188 70.484375 189.957031 70.5 L 189.683594 76.964844 C 189.652344 77.613281 189.375 78.195312 188.9375 78.613281 Z M 184.09375 59.46875 C 184.015625 57.667969 185.457031 56.171875 187.257812 56.171875 C 189.0625 56.171875 190.496094 57.667969 190.421875 59.46875 L 190.113281 66.835938 C 189.34375 66.816406 188.574219 66.808594 187.808594 66.808594 C 186.671875 66.808594 185.539062 66.828125 184.40625 66.859375 Z M 196.242188 191.570312 L 196.257812 195.242188 L 295.3125 194.878906 C 289.324219 248.035156 245.28125 286.558594 189.527344 287.328125 L 192.253906 70.570312 C 218.511719 71.628906 243.28125 82.074219 262.441406 100.246094 L 264.964844 97.585938 C 245.136719 78.769531 219.484375 67.96875 192.296875 66.902344 L 192.429688 56.992188 C 192.464844 54.117188 190.835938 51.765625 187.960938 51.765625 C 185.105469 51.765625 183.503906 54.082031 183.503906 56.929688 L 183.503906 56.992188 L 182.148438 67.539062 L 182.179688 67.539062 L 182.136719 67.246094 L 182.175781 67.140625 L 182.21875 70.65625 L 182.269531 70.535156 L 183.503906 70.535156 L 183.503906 70.570312 L 184.992188 288.277344 C 126.5 286.28125 79.140625 238.242188 79.140625 179.394531 C 79.140625 123.257812 122.574219 76.464844 176.511719 71.019531 L 176.511719 67.324219 C 151.539062 69.78125 126.90625 81.042969 108.304688 99.644531 C 87.132812 120.816406 75.589844 148.96875 75.589844 178.910156 C 75.589844 208.855469 87.542969 237.085938 108.710938 258.257812 C 129.234375 278.777344 155.535156 290.253906 185.5 291.136719 L 185.5 291.871094 L 185.425781 323.234375 L 189.09375 323.234375 L 189.484375 291.699219 C 217.1875 291.324219 243.355469 281.242188 263.324219 263.84375 C 283.863281 245.953125 296.59375 220.816406 299.167969 193.386719 L 299.355469 191.285156 L 196.242188 191.570312 " fill-opacity="1" fill-rule="nonzero"/></g><path fill="#ff7f00" d="M 137.558594 195.386719 L 178.507812 195.386719 L 178.507812 191.394531 L 137.558594 191.394531 L 137.558594 195.386719 " fill-opacity="1" fill-rule="nonzero"/><g clip-path="url(#31fcbe48e3)"><path fill="#ffffff" d="M 188.9375 78.613281 C 188.5 79.03125 187.90625 79.289062 187.257812 79.289062 C 185.960938 79.289062 184.890625 78.261719 184.835938 76.964844 L 184.566406 70.53125 C 185.644531 70.496094 186.726562 70.480469 187.808594 70.480469 C 188.523438 70.480469 189.242188 70.484375 189.957031 70.5 L 189.683594 76.964844 C 189.652344 77.613281 189.375 78.195312 188.9375 78.613281 Z M 184.09375 59.46875 C 184.015625 57.667969 185.457031 56.171875 187.257812 56.171875 C 189.0625 56.171875 190.496094 57.667969 190.421875 59.46875 L 190.113281 66.835938 C 189.34375 66.816406 188.574219 66.808594 187.808594 66.808594 C 186.671875 66.808594 185.539062 66.828125 184.40625 66.859375 Z M 196.242188 191.570312 L 196.257812 195.242188 L 295.3125 194.878906 C 289.324219 248.035156 245.28125 286.558594 189.527344 287.328125 L 192.253906 70.570312 C 218.511719 71.628906 243.28125 82.074219 262.441406 100.246094 L 264.964844 97.585938 C 245.136719 78.769531 219.484375 67.96875 192.296875 66.902344 L 192.429688 56.992188 C 192.464844 54.117188 190.835938 51.765625 187.960938 51.765625 C 185.105469 51.765625 183.503906 54.082031 183.503906 56.929688 L 183.503906 56.992188 L 182.148438 67.539062 L 182.179688 67.539062 L 182.136719 67.246094 L 182.175781 67.140625 L 182.21875 70.65625 L 182.269531 70.535156 L 183.503906 70.535156 L 183.503906 70.570312 L 184.992188 288.277344 C 126.5 286.28125 79.140625 238.242188 79.140625 179.394531 C 79.140625 123.257812 122.574219 76.464844 176.511719 71.019531 L 176.511719 67.324219 C 151.539062 69.78125 126.90625 81.042969 108.304688 99.644531 C 87.132812 120.816406 75.589844 148.96875 75.589844 178.910156 C 75.589844 208.855469 87.542969 237.085938 108.710938 258.257812 C 129.234375 278.777344 155.535156 290.253906 185.5 291.136719 L 185.5 291.871094 L 185.425781 323.234375 L 189.09375 323.234375 L 189.484375 291.699219 C 217.1875 291.324219 243.355469 281.242188 263.324219 263.84375 C 283.863281 245.953125 296.59375 220.816406 299.167969 193.386719 L 299.355469 191.285156 L 196.242188 191.570312 " fill-opacity="1" fill-rule="nonzero"/></g></svg>