<svg xmlns="http://www.w3.org/2000/svg" xmlns:xlink="http://www.w3.org/1999/xlink" width="500" zoomAndPan="magnify" viewBox="0 0 375 374.999991" height="500" preserveAspectRatio="xMidYMid meet" version="1.0"><defs><clipPath id="02bad9edc6"><path d="M 72.398438 47.769531 L 302.648438 47.769531 L 302.648438 327.519531 L 72.398438 327.519531 Z M 72.398438 47.769531 " clip-rule="nonzero"/></clipPath><clipPath id="84cbda4400"><path d="M 75.628906 51.695312 L 299.128906 51.695312 L 299.128906 323.195312 L 75.628906 323.195312 Z M 75.628906 51.695312 " clip-rule="nonzero"/></clipPath><clipPath id="fd32b1d731"><path d="M 176.507812 46.714844 L 302.507812 46.714844 L 302.507812 200.464844 L 176.507812 200.464844 Z M 176.507812 46.714844 " clip-rule="nonzero"/></clipPath><clipPath id="bed636e185"><path d="M 181.421875 51.695312 L 300.667969 51.695312 L 300.667969 197.945312 L 181.421875 197.945312 Z M 181.421875 51.695312 " clip-rule="nonzero"/></clipPath></defs><rect x="-37.5" width="450" fill="#ffffff" y="-37.499999" height="449.999989" fill-opacity="1"/><rect x="-37.5" width="450" fill="#e9e6e7" y="-37.499999" height="449.999989" fill-opacity="1"/><g clip-path="url(#02bad9edc6)"><path fill="#ffffff" d="M 188.980469 75.464844 C 188.53125 75.894531 187.917969 76.160156 187.253906 76.160156 C 185.917969 76.160156 184.816406 75.101562 184.761719 73.769531 L 184.484375 67.152344 C 185.589844 67.113281 186.703125 67.097656 187.820312 67.097656 C 188.554688 67.097656 189.292969 67.101562 190.027344 67.117188 L 189.746094 73.769531 C 189.714844 74.4375 189.429688 75.035156 188.980469 75.464844 Z M 183.996094 55.765625 C 183.917969 53.914062 185.398438 52.375 187.253906 52.375 C 189.109375 52.375 190.585938 53.914062 190.507812 55.765625 L 190.1875 63.347656 C 189.398438 63.328125 188.605469 63.320312 187.820312 63.320312 C 186.648438 63.320312 185.484375 63.339844 184.320312 63.375 Z M 196.496094 191.691406 L 196.511719 195.46875 L 298.429688 195.09375 C 292.269531 249.785156 246.953125 289.421875 189.585938 290.214844 L 192.390625 67.191406 C 219.410156 68.277344 244.894531 79.023438 264.605469 97.722656 L 267.203125 94.988281 C 246.804688 75.625 220.410156 64.511719 192.4375 63.417969 L 192.574219 53.21875 C 192.609375 50.261719 190.933594 47.839844 187.976562 47.839844 C 185.039062 47.839844 183.386719 50.226562 183.386719 53.15625 L 183.386719 53.21875 L 181.996094 64.070312 L 182.027344 64.070312 L 181.980469 63.769531 L 182.023438 63.664062 L 182.066406 67.277344 L 182.117188 67.15625 L 183.386719 67.15625 L 183.386719 67.191406 L 184.921875 291.191406 C 124.738281 289.136719 76.007812 239.710938 76.007812 179.160156 C 76.007812 121.402344 120.699219 73.257812 176.195312 67.652344 L 176.195312 63.851562 C 150.5 66.378906 125.152344 77.964844 106.015625 97.105469 C 84.230469 118.886719 72.355469 147.855469 72.355469 178.664062 C 72.355469 209.472656 84.652344 238.519531 106.433594 260.304688 C 127.550781 281.417969 154.613281 293.226562 185.441406 294.132812 L 185.441406 294.890625 L 185.367188 327.160156 L 189.140625 327.160156 L 189.542969 294.710938 C 218.046875 294.328125 244.972656 283.953125 265.519531 266.054688 C 286.652344 247.644531 299.75 221.777344 302.398438 193.558594 L 302.589844 191.394531 L 196.496094 191.691406 " fill-opacity="1" fill-rule="nonzero"/></g><path fill="#ffffff" d="M 136.113281 195.617188 L 178.25 195.617188 L 178.25 191.503906 L 136.113281 191.503906 L 136.113281 195.617188 " fill-opacity="1" fill-rule="nonzero"/><g clip-path="url(#84cbda4400)"><path fill="#ffffff" d="M 188.9375 78.613281 C 188.5 79.03125 187.90625 79.289062 187.257812 79.289062 C 185.960938 79.289062 184.890625 78.261719 184.835938 76.964844 L 184.566406 70.53125 C 185.644531 70.496094 186.726562 70.480469 187.808594 70.480469 C 188.523438 70.480469 189.242188 70.484375 189.957031 70.5 L 189.683594 76.964844 C 189.652344 77.613281 189.375 78.195312 188.9375 78.613281 Z M 184.09375 59.46875 C 184.015625 57.667969 185.457031 56.171875 187.257812 56.171875 C 189.0625 56.171875 190.496094 57.667969 190.421875 59.46875 L 190.113281 66.835938 C 189.34375 66.816406 188.574219 66.808594 187.808594 66.808594 C 186.671875 66.808594 185.539062 66.828125 184.40625 66.859375 Z M 196.242188 191.570312 L 196.257812 195.242188 L 295.3125 194.878906 C 289.324219 248.035156 245.28125 286.558594 189.527344 287.328125 L 192.253906 70.570312 C 218.511719 71.628906 243.28125 82.074219 262.441406 100.246094 L 264.964844 97.585938 C 245.136719 78.769531 219.484375 67.96875 192.296875 66.902344 L 192.429688 56.992188 C 192.464844 54.117188 190.835938 51.765625 187.960938 51.765625 C 185.105469 51.765625 183.503906 54.082031 183.503906 56.929688 L 183.503906 56.992188 L 182.148438 67.539062 L 182.179688 67.539062 L 182.136719 67.246094 L 182.175781 67.140625 L 182.21875 70.65625 L 182.269531 70.535156 L 183.503906 70.535156 L 183.503906 70.570312 L 184.992188 288.277344 C 126.5 286.28125 79.140625 238.242188 79.140625 179.394531 C 79.140625 123.257812 122.574219 76.464844 176.511719 71.019531 L 176.511719 67.324219 C 151.539062 69.78125 126.90625 81.042969 108.304688 99.644531 C 87.132812 120.816406 75.589844 148.96875 75.589844 178.910156 C 75.589844 208.855469 87.542969 237.085938 108.710938 258.257812 C 129.234375 278.777344 155.535156 290.253906 185.5 291.136719 L 185.5 291.871094 L 185.425781 323.234375 L 189.09375 323.234375 L 189.484375 291.699219 C 217.1875 291.324219 243.355469 281.242188 263.324219 263.84375 C 283.863281 245.953125 296.59375 220.816406 299.167969 193.386719 L 299.355469 191.285156 L 196.242188 191.570312 " fill-opacity="1" fill-rule="nonzero"/></g><path fill="#ffffff" d="M 137.558594 195.386719 L 178.507812 195.386719 L 178.507812 191.394531 L 137.558594 191.394531 L 137.558594 195.386719 " fill-opacity="1" fill-rule="nonzero"/><g clip-path="url(#fd32b1d731)"><path fill="#4066ff" d="M 184.535156 75.496094 C 184.070312 75.945312 183.433594 76.21875 182.742188 76.21875 C 181.355469 76.21875 180.210938 75.121094 180.152344 73.738281 L 179.863281 66.859375 C 181.015625 66.820312 182.171875 66.804688 183.332031 66.804688 C 184.09375 66.804688 184.863281 66.808594 185.625 66.824219 L 185.332031 73.738281 C 185.300781 74.429688 185.003906 75.050781 184.535156 75.496094 Z M 179.359375 55.03125 C 179.277344 53.105469 180.816406 51.503906 182.742188 51.503906 C 184.671875 51.503906 186.203125 53.105469 186.125 55.03125 L 185.792969 62.910156 C 184.96875 62.886719 184.148438 62.878906 183.332031 62.878906 C 182.113281 62.878906 180.902344 62.902344 179.695312 62.933594 Z M 192.34375 196.261719 L 192.363281 200.1875 L 298.257812 199.796875 C 291.859375 256.625 244.773438 297.808594 185.167969 298.632812 L 188.082031 66.902344 C 216.152344 68.03125 242.636719 79.199219 263.117188 98.628906 L 265.816406 95.78125 C 244.617188 75.664062 217.191406 64.117188 188.128906 62.980469 L 188.269531 52.386719 C 188.308594 49.3125 186.566406 46.796875 183.492188 46.796875 C 180.441406 46.796875 178.726562 49.273438 178.726562 52.320312 L 178.726562 52.386719 L 177.277344 63.660156 L 177.3125 63.660156 L 177.265625 63.347656 L 177.308594 63.234375 L 177.355469 66.992188 L 177.40625 66.863281 L 178.726562 66.863281 L 178.726562 66.902344 L 180.320312 299.648438 C 117.785156 297.511719 67.15625 246.15625 67.15625 183.242188 C 67.15625 123.230469 113.589844 73.203125 171.25 67.378906 L 171.25 63.429688 C 144.554688 66.058594 118.21875 78.097656 98.335938 97.984375 C 75.699219 120.617188 63.359375 150.714844 63.359375 182.726562 C 63.359375 214.738281 76.136719 244.917969 98.769531 267.554688 C 120.710938 289.492188 148.828125 301.761719 180.863281 302.707031 L 180.863281 303.488281 L 180.78125 337.023438 L 184.703125 337.023438 L 185.121094 303.304688 C 214.738281 302.90625 242.714844 292.128906 264.0625 273.527344 C 286.019531 254.398438 299.632812 227.523438 302.382812 198.199219 L 302.585938 195.953125 L 192.34375 196.261719 " fill-opacity="1" fill-rule="nonzero"/></g><g clip-path="url(#bed636e185)"><path fill="#4066ff" d="M 189.042969 78.980469 C 188.597656 79.40625 187.996094 79.667969 187.339844 79.667969 C 186.023438 79.667969 184.9375 78.625 184.882812 77.3125 L 184.609375 70.789062 C 185.703125 70.753906 186.796875 70.738281 187.898438 70.738281 C 188.621094 70.738281 189.351562 70.742188 190.074219 70.757812 L 189.796875 77.3125 C 189.765625 77.96875 189.484375 78.558594 189.042969 78.980469 Z M 184.132812 59.570312 C 184.054688 57.75 185.511719 56.230469 187.339844 56.230469 C 189.167969 56.230469 190.625 57.75 190.546875 59.570312 L 190.230469 67.042969 C 189.453125 67.023438 188.671875 67.015625 187.898438 67.015625 C 186.742188 67.015625 185.597656 67.035156 184.449219 67.066406 Z M 196.445312 193.503906 L 196.460938 197.226562 L 296.886719 196.859375 C 290.816406 250.75 246.164062 289.800781 189.636719 290.585938 L 192.402344 70.828125 C 219.023438 71.902344 244.136719 82.492188 263.558594 100.914062 L 266.121094 98.21875 C 246.015625 79.140625 220.007812 68.191406 192.445312 67.109375 L 192.582031 57.0625 C 192.617188 54.148438 190.96875 51.761719 188.050781 51.761719 C 185.15625 51.761719 183.53125 54.113281 183.53125 57 L 183.53125 57.0625 L 182.160156 67.757812 L 182.191406 67.757812 L 182.148438 67.460938 L 182.1875 67.351562 L 182.230469 70.917969 L 182.28125 70.792969 L 183.53125 70.792969 L 183.53125 70.828125 L 185.042969 291.546875 C 125.738281 289.519531 77.726562 240.820312 77.726562 181.15625 C 77.726562 124.246094 121.761719 76.804688 176.441406 71.285156 L 176.441406 67.539062 C 151.128906 70.03125 126.152344 81.445312 107.296875 100.304688 C 85.828125 121.769531 74.128906 150.3125 74.128906 180.667969 C 74.128906 211.027344 86.242188 239.644531 107.707031 261.113281 C 128.511719 281.914062 155.175781 293.550781 185.554688 294.445312 L 185.554688 295.1875 L 185.480469 326.988281 L 189.199219 326.988281 L 189.59375 295.015625 C 217.683594 294.636719 244.214844 284.414062 264.457031 266.777344 C 285.28125 248.636719 298.1875 223.152344 300.796875 195.34375 L 300.988281 193.210938 L 196.445312 193.503906 " fill-opacity="1" fill-rule="nonzero"/></g></svg>