<?xml version="1.0" encoding="utf-8"?>
<!-- Generator: Adobe Illustrator 16.0.0, SVG Export Plug-In . SVG Version: 6.00 Build 0)  -->
<!DOCTYPE svg PUBLIC "-//W3C//DTD SVG 1.1//EN" "http://www.w3.org/Graphics/SVG/1.1/DTD/svg11.dtd">
<svg version="1.1" id="Layer_9" xmlns="http://www.w3.org/2000/svg" xmlns:xlink="http://www.w3.org/1999/xlink" x="0px" y="0px"
	 width="512px" height="512px" viewBox="0 0 512 512" enable-background="new 0 0 512 512" xml:space="preserve">
<path fill-rule="evenodd" clip-rule="evenodd" fill="#007EE5" d="M500.344,126.925c-0.047,0.047-0.047,0.086-0.109,0.141
	l-30.938,24.993c-18.578,14.961-42.124,23.946-67.796,23.946c-19.453,0-37.594-5.289-53.375-14.282l-43.343-26.243l0.031-0.039
	c-5.219-2.672-8.812-8.016-8.812-14.258c0-8.868,7.188-16.055,16.078-16.055c2.703,0,5.203,0.734,7.438,1.914l0.062-0.109
	l46.421,27.868c10.844,5.969,23.25,9.454,36.5,9.454c16.672,0,32.016-5.492,44.53-14.602l24.844-19.329
	c1.594-1.453,2.625-3.516,2.625-5.828c0-2.672-1.375-4.969-3.375-6.422l-93.03-62.018C373.563,33.508,368.392,32,362.829,32
	c-7.672,0-14.641,2.781-20.094,7.359l-54.733,48.635l-31.988,17.938l0,0l-92.101,55.775c-15.75,9.024-33.96,14.297-53.406,14.297
	c-25.578,0-49.078-8.938-67.578-23.805L11.75,127.026c-0.055-0.031-0.031-0.07-0.086-0.102C4.578,121.417,0,112.799,0,103.111
	c0-9.914,4.898-18.657,12.328-24.141l100.835-67.705c0.164-0.109,0.32-0.18,0.484-0.289c10.227-6.946,22.57-10.977,35.859-10.977
	c16.093,0,30.75,5.953,42,15.727l22.391,19.5l-0.023,0.023c3.43,3.008,5.633,7.391,5.633,12.305c0,9.079-7.352,16.43-16.43,16.43
	c-4.758,0-9.008-2.039-12-5.258L169.28,39.336C163.827,34.766,156.843,32,149.187,32c-5.562,0-10.742,1.508-15.266,4.055
	L40.882,98.072c-2.008,1.453-3.367,3.75-3.367,6.422c0,2.312,1.023,4.375,2.617,5.812l24.992,19.43
	c12.484,9.04,27.766,14.516,44.382,14.516c13.312,0,25.758-3.516,36.609-9.508l77.28-46.376l32.617-16.438l0,0l64.535-56.236
	c11.218-9.782,25.89-15.696,41.952-15.696c13.297,0,25.641,4.031,35.859,10.977c0.188,0.125,0.344,0.195,0.516,0.305l100.749,67.65
	C507.094,84.423,512,93.158,512,103.111C512,112.799,507.438,121.417,500.344,126.925L500.344,126.925z M11.664,241.069
	c0.031-0.031,0.055-0.047,0.086-0.086l31.414-25.384c18.445-14.766,41.875-23.594,67.343-23.594
	c19.391,0,37.547,5.242,53.265,14.211l44.125,26.712v0.016c4.844,2.766,8.109,7.898,8.109,13.867c0,8.868-7.188,16.055-16.07,16.055
	c-2.852,0-5.469-0.805-7.805-2.117l-0.055,0.094l-45.812-27.5c-10.891-6.063-23.398-9.602-36.758-9.602
	c-16.671,0-32.007,5.492-44.507,14.586l-24.867,19.344c-1.594,1.469-2.617,3.516-2.617,5.828c0,2.688,1.359,4.984,3.367,6.422
	l92.89,61.924c4.562,2.602,9.797,4.165,15.414,4.165c7.695,0,14.742-2.821,20.179-7.431L224.006,280l31.957-17.888l0.051-0.051
	l9.332-5.648l1.156-0.664l-0.031-0.016l81.812-49.556c15.719-8.954,33.844-14.172,53.219-14.172c25.562,0,49.015,8.922,67.53,23.735
	l31.203,25.204c0.062,0.039,0.062,0.094,0.109,0.125c7.094,5.508,11.656,14.125,11.656,23.813c0,9.915-4.875,18.649-12.281,24.142
	l-100.843,67.689c-0.172,0.109-0.328,0.18-0.516,0.305c-10.219,6.945-22.562,10.977-35.859,10.977
	c-16.062,0-30.75-5.922-41.999-15.711l-20.891-18.228c-4.359-2.961-7.234-7.953-7.234-13.617c0-9.078,7.359-16.438,16.438-16.438
	c4.625,0,8.797,1.907,11.781,4.993l22.015,19.555c5.453,4.641,12.5,7.462,20.219,7.462c5.609,0,10.844-1.563,15.406-4.165
	l92.89-61.924c2-1.438,3.375-3.734,3.375-6.422c0-2.336-1.031-4.359-2.625-5.828l-24.828-19.305
	c-12.515-9.118-27.858-14.625-44.546-14.625c-13.328,0-25.781,3.539-36.688,9.563L288.002,280l-31.988,16.055l0,0l-64.507,56.205
	c-11.25,9.797-25.922,15.734-42,15.734c-13.289,0-25.633-4.031-35.859-10.977c-0.164-0.109-0.32-0.18-0.484-0.289l-100.905-67.76
	C4.883,283.461,0,274.766,0,264.882C0,255.194,4.578,246.577,11.664,241.069L11.664,241.069z M112.015,383.995
	c8.828,0,15.984,7.18,15.984,16.009v3.75c0,2.672,1.414,4.93,3.43,6.383l101.226,63.291c0.234,0.125,0.469,0.164,0.703,0.305
	c6.617,3.984,14.367,6.281,22.656,6.281c8.52,0,16.488-2.438,23.238-6.641c0.219-0.141,0.422-0.18,0.656-0.305l60.499-37.813
	c2.922-2.031,6.453-3.251,10.297-3.251c9.969,0,18.062,8.095,18.062,18.063c0,6.586-3.531,12.289-8.812,15.454l0.047,0.086
	l-54.28,32.563c-0.156,0.086-0.297,0.156-0.469,0.25c-14.406,8.625-31.25,13.578-49.238,13.578c-18.172,0-35.14-5.039-49.617-13.797
	c-0.219-0.125-0.398-0.211-0.609-0.336l-93.828-56.299c-9.578-6.461-15.945-17.368-15.945-29.813v-11.75
	C96.015,391.175,103.171,383.995,112.015,383.995L112.015,383.995z M400.017,383.995c8.828,0,15.984,7.18,15.984,16.009
	c0,8.844-7.156,16-15.984,16c-8.844,0-16-7.156-16-16C384.017,391.175,391.173,383.995,400.017,383.995L400.017,383.995z"/>
</svg>
