<svg xmlns="http://www.w3.org/2000/svg" xmlns:xlink="http://www.w3.org/1999/xlink" width="500" zoomAndPan="magnify" viewBox="0 0 375 374.999991" height="500" preserveAspectRatio="xMidYMid meet" version="1.0"><defs><filter x="0%" y="0%" width="100%" height="100%" id="8906edd1dd"><feColorMatrix values="0 0 0 0 1 0 0 0 0 1 0 0 0 0 1 0 0 0 1 0" color-interpolation-filters="sRGB"/></filter><g/><mask id="606c21e555"><g filter="url(#8906edd1dd)"><rect x="-37.5" width="450" fill="#000000" y="-37.499999" height="449.999989" fill-opacity="0.77"/></g></mask><clipPath id="90b047bf21"><path d="M 0.0390625 1.15625 L 245 1.15625 L 245 305.28125 L 0.0390625 305.28125 Z M 0.0390625 1.15625 " clip-rule="nonzero"/></clipPath><clipPath id="25142adc5d"><path d="M 244.820312 123.511719 L 197.304688 75.996094 L 179.046875 57.734375 L 139.695312 18.386719 L 122.527344 1.15625 L 110.375 13.308594 L 110.117188 13.308594 L 110.117188 13.5625 L 65.945312 57.734375 L 60.804688 62.878906 L 0.171875 123.511719 L 17.402344 140.742188 L 47.300781 110.84375 L 47.300781 230.117188 L 71.667969 254.484375 L 71.667969 171.476562 L 110.117188 171.476562 L 110.117188 292.933594 L 122.464844 305.28125 L 134.421875 293.320312 L 134.421875 171.476562 L 172.871094 171.476562 L 172.871094 254.871094 L 197.242188 230.503906 L 197.242188 110.394531 L 227.523438 140.679688 L 244.757812 123.449219 Z M 71.667969 147.109375 L 71.667969 86.476562 L 110.117188 48.027344 L 110.117188 147.109375 Z M 172.9375 147.109375 L 134.488281 147.109375 L 134.488281 47.578125 L 172.9375 86.027344 Z M 172.9375 147.109375 " clip-rule="nonzero"/></clipPath><linearGradient x1="191.842183" gradientTransform="matrix(0.64297, 0, 0, 0.64297, 0.170716, 1.154882)" y1="474.052694" x2="189.19112" gradientUnits="userSpaceOnUse" y2="-1.05567" id="8194b79631"><stop stop-opacity="1" stop-color="rgb(68.547058%, 49.189758%, 28.160095%)" offset="0"/><stop stop-opacity="1" stop-color="rgb(68.685913%, 49.336243%, 28.283691%)" offset="0.00446864"/><stop stop-opacity="1" stop-color="rgb(68.824768%, 49.484253%, 28.407288%)" offset="0.0078125"/><stop stop-opacity="1" stop-color="rgb(68.963623%, 49.630737%, 28.530884%)" offset="0.015625"/><stop stop-opacity="1" stop-color="rgb(69.242859%, 49.923706%, 28.778076%)" offset="0.0234375"/><stop stop-opacity="1" stop-color="rgb(69.520569%, 50.218201%, 29.025269%)" offset="0.03125"/><stop stop-opacity="1" stop-color="rgb(69.798279%, 50.511169%, 29.272461%)" offset="0.0390625"/><stop stop-opacity="1" stop-color="rgb(70.075989%, 50.805664%, 29.519653%)" offset="0.046875"/><stop stop-opacity="1" stop-color="rgb(70.355225%, 51.098633%, 29.766846%)" offset="0.0546875"/><stop stop-opacity="1" stop-color="rgb(70.632935%, 51.393127%, 30.012512%)" offset="0.0625"/><stop stop-opacity="1" stop-color="rgb(70.910645%, 51.686096%, 30.259705%)" offset="0.0703125"/><stop stop-opacity="1" stop-color="rgb(71.188354%, 51.980591%, 30.506897%)" offset="0.078125"/><stop stop-opacity="1" stop-color="rgb(71.46759%, 52.27356%, 30.754089%)" offset="0.0859375"/><stop stop-opacity="1" stop-color="rgb(71.7453%, 52.566528%, 31.001282%)" offset="0.09375"/><stop stop-opacity="1" stop-color="rgb(72.02301%, 52.861023%, 31.248474%)" offset="0.101563"/><stop stop-opacity="1" stop-color="rgb(72.302246%, 53.153992%, 31.495667%)" offset="0.109375"/><stop stop-opacity="1" stop-color="rgb(72.579956%, 53.448486%, 31.742859%)" offset="0.117188"/><stop stop-opacity="1" stop-color="rgb(72.857666%, 53.741455%, 31.990051%)" offset="0.125"/><stop stop-opacity="1" stop-color="rgb(73.135376%, 54.03595%, 32.237244%)" offset="0.132812"/><stop stop-opacity="1" stop-color="rgb(73.414612%, 54.328918%, 32.484436%)" offset="0.140625"/><stop stop-opacity="1" stop-color="rgb(73.692322%, 54.623413%, 32.730103%)" offset="0.148438"/><stop stop-opacity="1" stop-color="rgb(73.970032%, 54.916382%, 32.977295%)" offset="0.15625"/><stop stop-opacity="1" stop-color="rgb(74.247742%, 55.209351%, 33.224487%)" offset="0.164063"/><stop stop-opacity="1" stop-color="rgb(74.526978%, 55.503845%, 33.47168%)" offset="0.171875"/><stop stop-opacity="1" stop-color="rgb(74.804688%, 55.796814%, 33.718872%)" offset="0.179687"/><stop stop-opacity="1" stop-color="rgb(75.082397%, 56.091309%, 33.966064%)" offset="0.1875"/><stop stop-opacity="1" stop-color="rgb(75.361633%, 56.384277%, 34.213257%)" offset="0.195313"/><stop stop-opacity="1" stop-color="rgb(75.639343%, 56.678772%, 34.460449%)" offset="0.203125"/><stop stop-opacity="1" stop-color="rgb(75.917053%, 56.971741%, 34.707642%)" offset="0.210938"/><stop stop-opacity="1" stop-color="rgb(76.194763%, 57.266235%, 34.954834%)" offset="0.21875"/><stop stop-opacity="1" stop-color="rgb(76.473999%, 57.559204%, 35.202026%)" offset="0.226562"/><stop stop-opacity="1" stop-color="rgb(76.751709%, 57.853699%, 35.449219%)" offset="0.234375"/><stop stop-opacity="1" stop-color="rgb(77.029419%, 58.146667%, 35.694885%)" offset="0.242188"/><stop stop-opacity="1" stop-color="rgb(77.307129%, 58.439636%, 35.942078%)" offset="0.25"/><stop stop-opacity="1" stop-color="rgb(77.586365%, 58.734131%, 36.18927%)" offset="0.257812"/><stop stop-opacity="1" stop-color="rgb(77.864075%, 59.0271%, 36.436462%)" offset="0.265625"/><stop stop-opacity="1" stop-color="rgb(78.141785%, 59.321594%, 36.683655%)" offset="0.273437"/><stop stop-opacity="1" stop-color="rgb(78.421021%, 59.614563%, 36.930847%)" offset="0.28125"/><stop stop-opacity="1" stop-color="rgb(78.69873%, 59.909058%, 37.17804%)" offset="0.289063"/><stop stop-opacity="1" stop-color="rgb(78.97644%, 60.202026%, 37.425232%)" offset="0.296875"/><stop stop-opacity="1" stop-color="rgb(79.25415%, 60.496521%, 37.672424%)" offset="0.304688"/><stop stop-opacity="1" stop-color="rgb(79.533386%, 60.78949%, 37.919617%)" offset="0.3125"/><stop stop-opacity="1" stop-color="rgb(79.811096%, 61.083984%, 38.166809%)" offset="0.320313"/><stop stop-opacity="1" stop-color="rgb(80.088806%, 61.376953%, 38.412476%)" offset="0.328125"/><stop stop-opacity="1" stop-color="rgb(80.366516%, 61.669922%, 38.659668%)" offset="0.335938"/><stop stop-opacity="1" stop-color="rgb(80.645752%, 61.964417%, 38.90686%)" offset="0.34375"/><stop stop-opacity="1" stop-color="rgb(80.923462%, 62.257385%, 39.154053%)" offset="0.351563"/><stop stop-opacity="1" stop-color="rgb(81.201172%, 62.55188%, 39.401245%)" offset="0.359375"/><stop stop-opacity="1" stop-color="rgb(81.480408%, 62.844849%, 39.648438%)" offset="0.367188"/><stop stop-opacity="1" stop-color="rgb(81.758118%, 63.139343%, 39.89563%)" offset="0.375"/><stop stop-opacity="1" stop-color="rgb(82.035828%, 63.432312%, 40.142822%)" offset="0.382812"/><stop stop-opacity="1" stop-color="rgb(82.313538%, 63.726807%, 40.390015%)" offset="0.390625"/><stop stop-opacity="1" stop-color="rgb(82.592773%, 64.019775%, 40.637207%)" offset="0.398438"/><stop stop-opacity="1" stop-color="rgb(82.870483%, 64.312744%, 40.884399%)" offset="0.40625"/><stop stop-opacity="1" stop-color="rgb(83.148193%, 64.607239%, 41.130066%)" offset="0.414063"/><stop stop-opacity="1" stop-color="rgb(83.425903%, 64.900208%, 41.377258%)" offset="0.421875"/><stop stop-opacity="1" stop-color="rgb(83.705139%, 65.194702%, 41.624451%)" offset="0.429687"/><stop stop-opacity="1" stop-color="rgb(83.982849%, 65.487671%, 41.871643%)" offset="0.4375"/><stop stop-opacity="1" stop-color="rgb(84.260559%, 65.782166%, 42.118835%)" offset="0.445313"/><stop stop-opacity="1" stop-color="rgb(84.539795%, 66.075134%, 42.366028%)" offset="0.453125"/><stop stop-opacity="1" stop-color="rgb(84.817505%, 66.369629%, 42.61322%)" offset="0.460938"/><stop stop-opacity="1" stop-color="rgb(85.095215%, 66.662598%, 42.860413%)" offset="0.46875"/><stop stop-opacity="1" stop-color="rgb(85.372925%, 66.957092%, 43.107605%)" offset="0.476562"/><stop stop-opacity="1" stop-color="rgb(85.652161%, 67.250061%, 43.354797%)" offset="0.484375"/><stop stop-opacity="1" stop-color="rgb(85.929871%, 67.54303%, 43.60199%)" offset="0.492188"/><stop stop-opacity="1" stop-color="rgb(86.207581%, 67.837524%, 43.849182%)" offset="0.5"/><stop stop-opacity="1" stop-color="rgb(86.485291%, 68.130493%, 44.094849%)" offset="0.507813"/><stop stop-opacity="1" stop-color="rgb(86.764526%, 68.424988%, 44.342041%)" offset="0.515625"/><stop stop-opacity="1" stop-color="rgb(87.042236%, 68.717957%, 44.589233%)" offset="0.523438"/><stop stop-opacity="1" stop-color="rgb(87.319946%, 69.012451%, 44.836426%)" offset="0.53125"/><stop stop-opacity="1" stop-color="rgb(87.597656%, 69.30542%, 45.083618%)" offset="0.539062"/><stop stop-opacity="1" stop-color="rgb(87.876892%, 69.599915%, 45.330811%)" offset="0.546875"/><stop stop-opacity="1" stop-color="rgb(88.154602%, 69.892883%, 45.578003%)" offset="0.554688"/><stop stop-opacity="1" stop-color="rgb(88.432312%, 70.187378%, 45.825195%)" offset="0.5625"/><stop stop-opacity="1" stop-color="rgb(88.711548%, 70.480347%, 46.072388%)" offset="0.570313"/><stop stop-opacity="1" stop-color="rgb(88.989258%, 70.773315%, 46.31958%)" offset="0.578125"/><stop stop-opacity="1" stop-color="rgb(89.266968%, 71.06781%, 46.566772%)" offset="0.585938"/><stop stop-opacity="1" stop-color="rgb(89.544678%, 71.360779%, 46.812439%)" offset="0.59375"/><stop stop-opacity="1" stop-color="rgb(89.823914%, 71.655273%, 47.059631%)" offset="0.601562"/><stop stop-opacity="1" stop-color="rgb(90.101624%, 71.948242%, 47.306824%)" offset="0.609375"/><stop stop-opacity="1" stop-color="rgb(90.379333%, 72.242737%, 47.554016%)" offset="0.617188"/><stop stop-opacity="1" stop-color="rgb(90.657043%, 72.535706%, 47.801208%)" offset="0.625"/><stop stop-opacity="1" stop-color="rgb(90.936279%, 72.8302%, 48.048401%)" offset="0.632812"/><stop stop-opacity="1" stop-color="rgb(91.213989%, 73.123169%, 48.295593%)" offset="0.640625"/><stop stop-opacity="1" stop-color="rgb(91.491699%, 73.417664%, 48.542786%)" offset="0.648438"/><stop stop-opacity="1" stop-color="rgb(91.770935%, 73.710632%, 48.789978%)" offset="0.65625"/><stop stop-opacity="1" stop-color="rgb(92.048645%, 74.003601%, 49.03717%)" offset="0.664063"/><stop stop-opacity="1" stop-color="rgb(92.326355%, 74.298096%, 49.284363%)" offset="0.671875"/><stop stop-opacity="1" stop-color="rgb(92.604065%, 74.591064%, 49.530029%)" offset="0.679687"/><stop stop-opacity="1" stop-color="rgb(92.883301%, 74.885559%, 49.777222%)" offset="0.6875"/><stop stop-opacity="1" stop-color="rgb(93.161011%, 75.178528%, 50.024414%)" offset="0.695312"/><stop stop-opacity="1" stop-color="rgb(93.438721%, 75.473022%, 50.271606%)" offset="0.703125"/><stop stop-opacity="1" stop-color="rgb(93.716431%, 75.765991%, 50.518799%)" offset="0.710938"/><stop stop-opacity="1" stop-color="rgb(93.995667%, 76.060486%, 50.765991%)" offset="0.71875"/><stop stop-opacity="1" stop-color="rgb(94.273376%, 76.353455%, 51.013184%)" offset="0.726562"/><stop stop-opacity="1" stop-color="rgb(94.551086%, 76.646423%, 51.260376%)" offset="0.734375"/><stop stop-opacity="1" stop-color="rgb(94.830322%, 76.940918%, 51.507568%)" offset="0.742188"/><stop stop-opacity="1" stop-color="rgb(95.108032%, 77.233887%, 51.754761%)" offset="0.75"/><stop stop-opacity="1" stop-color="rgb(95.385742%, 77.528381%, 52.001953%)" offset="0.757813"/><stop stop-opacity="1" stop-color="rgb(95.663452%, 77.82135%, 52.249146%)" offset="0.765625"/><stop stop-opacity="1" stop-color="rgb(95.942688%, 78.115845%, 52.494812%)" offset="0.773438"/><stop stop-opacity="1" stop-color="rgb(96.220398%, 78.408813%, 52.742004%)" offset="0.78125"/><stop stop-opacity="1" stop-color="rgb(96.498108%, 78.703308%, 52.989197%)" offset="0.789062"/><stop stop-opacity="1" stop-color="rgb(96.775818%, 78.996277%, 53.236389%)" offset="0.796875"/><stop stop-opacity="1" stop-color="rgb(97.055054%, 79.290771%, 53.483582%)" offset="0.804688"/><stop stop-opacity="1" stop-color="rgb(97.332764%, 79.58374%, 53.730774%)" offset="0.8125"/><stop stop-opacity="1" stop-color="rgb(97.610474%, 79.876709%, 53.977966%)" offset="0.820313"/><stop stop-opacity="1" stop-color="rgb(97.889709%, 80.171204%, 54.225159%)" offset="0.828125"/><stop stop-opacity="1" stop-color="rgb(98.167419%, 80.464172%, 54.472351%)" offset="0.835938"/><stop stop-opacity="1" stop-color="rgb(98.445129%, 80.758667%, 54.719543%)" offset="0.84375"/><stop stop-opacity="1" stop-color="rgb(98.722839%, 81.051636%, 54.966736%)" offset="0.851562"/><stop stop-opacity="1" stop-color="rgb(99.002075%, 81.34613%, 55.212402%)" offset="0.859375"/><stop stop-opacity="1" stop-color="rgb(99.279785%, 81.639099%, 55.459595%)" offset="0.867188"/><stop stop-opacity="1" stop-color="rgb(99.557495%, 81.933594%, 55.706787%)" offset="0.875"/><stop stop-opacity="1" stop-color="rgb(99.847412%, 82.23877%, 55.964661%)" offset="0.995531"/><stop stop-opacity="1" stop-color="rgb(100%, 82.398987%, 56.098938%)" offset="1"/></linearGradient><clipPath id="c4dae4d182"><rect x="0" width="246" y="0" height="306"/></clipPath></defs><g mask="url(#606c21e555)"><g transform="matrix(1, 0, 0, 1, 65, 18)"><g clip-path="url(#c4dae4d182)"><g clip-path="url(#90b047bf21)"><g clip-path="url(#25142adc5d)"><path fill="url(#8194b79631)" d="M 0.171875 1.15625 L 0.171875 305.28125 L 244.820312 305.28125 L 244.820312 1.15625 Z M 0.171875 1.15625 " fill-rule="nonzero"/></g></g></g></g></g><g fill="#1b292a" fill-opacity="1"><g transform="translate(124.074998, 315.721882)"><g><path d="M 5.53125 0.140625 C 4.65625 0.140625 3.875 -0.0546875 3.1875 -0.453125 C 2.5 -0.859375 1.960938 -1.445312 1.578125 -2.21875 C 1.191406 -2.988281 1 -3.914062 1 -5 C 1 -6.082031 1.191406 -7.007812 1.578125 -7.78125 C 1.960938 -8.550781 2.5 -9.132812 3.1875 -9.53125 C 3.875 -9.9375 4.65625 -10.140625 5.53125 -10.140625 C 6.457031 -10.140625 7.226562 -9.960938 7.84375 -9.609375 C 8.46875 -9.253906 8.914062 -8.722656 9.1875 -8.015625 L 8.4375 -7.515625 L 8.265625 -7.515625 C 7.992188 -8.085938 7.640625 -8.488281 7.203125 -8.71875 C 6.765625 -8.957031 6.207031 -9.078125 5.53125 -9.078125 C 4.894531 -9.078125 4.332031 -8.9375 3.84375 -8.65625 C 3.363281 -8.382812 2.976562 -7.941406 2.6875 -7.328125 C 2.394531 -6.722656 2.25 -5.945312 2.25 -5 C 2.25 -4.050781 2.394531 -3.269531 2.6875 -2.65625 C 2.976562 -2.050781 3.363281 -1.609375 3.84375 -1.328125 C 4.332031 -1.054688 4.894531 -0.921875 5.53125 -0.921875 C 6.25 -0.921875 6.835938 -1.082031 7.296875 -1.40625 C 7.753906 -1.726562 8.097656 -2.253906 8.328125 -2.984375 L 8.5 -2.984375 L 9.28125 -2.59375 C 9.039062 -1.707031 8.597656 -1.03125 7.953125 -0.5625 C 7.316406 -0.09375 6.507812 0.140625 5.53125 0.140625 Z M 5.53125 0.140625 "/></g></g></g><g fill="#1b292a" fill-opacity="1"><g transform="translate(135.272263, 315.721882)"><g><path d="M 5.484375 0.140625 C 4.617188 0.140625 3.847656 -0.046875 3.171875 -0.421875 C 2.492188 -0.796875 1.960938 -1.363281 1.578125 -2.125 C 1.191406 -2.894531 1 -3.851562 1 -5 C 1 -6.144531 1.191406 -7.097656 1.578125 -7.859375 C 1.960938 -8.628906 2.492188 -9.203125 3.171875 -9.578125 C 3.847656 -9.953125 4.617188 -10.140625 5.484375 -10.140625 C 6.347656 -10.140625 7.117188 -9.953125 7.796875 -9.578125 C 8.472656 -9.203125 9.003906 -8.628906 9.390625 -7.859375 C 9.773438 -7.097656 9.96875 -6.144531 9.96875 -5 C 9.96875 -3.851562 9.773438 -2.894531 9.390625 -2.125 C 9.003906 -1.363281 8.472656 -0.796875 7.796875 -0.421875 C 7.117188 -0.046875 6.347656 0.140625 5.484375 0.140625 Z M 5.484375 -0.9375 C 6.523438 -0.9375 7.320312 -1.257812 7.875 -1.90625 C 8.425781 -2.5625 8.703125 -3.59375 8.703125 -5 C 8.703125 -6.40625 8.425781 -7.429688 7.875 -8.078125 C 7.320312 -8.722656 6.523438 -9.046875 5.484375 -9.046875 C 3.328125 -9.046875 2.25 -7.695312 2.25 -5 C 2.25 -2.289062 3.328125 -0.9375 5.484375 -0.9375 Z M 5.484375 -0.9375 "/></g></g></g><g fill="#1b292a" fill-opacity="1"><g transform="translate(147.630992, 315.721882)"><g><path d="M 2.65625 0 L 1.515625 0 L 1.515625 -10 L 2.953125 -10 L 7.828125 -2.359375 L 8 -2.390625 L 8 -10 L 9.140625 -10 L 9.140625 0 L 7.90625 0 L 2.828125 -8.171875 L 2.65625 -8.140625 Z M 2.65625 0 "/></g></g></g><g fill="#1b292a" fill-opacity="1"><g transform="translate(159.682275, 315.721882)"><g><path d="M 4.375 0.140625 C 3.738281 0.140625 3.171875 0.0546875 2.671875 -0.109375 C 2.171875 -0.285156 1.753906 -0.507812 1.421875 -0.78125 C 1.097656 -1.0625 0.851562 -1.367188 0.6875 -1.703125 L 1.328125 -2.484375 L 1.5 -2.484375 C 2.113281 -1.441406 3.070312 -0.921875 4.375 -0.921875 C 5.125 -0.921875 5.679688 -1.078125 6.046875 -1.390625 C 6.410156 -1.703125 6.59375 -2.140625 6.59375 -2.703125 C 6.59375 -3.023438 6.53125 -3.300781 6.40625 -3.53125 C 6.289062 -3.757812 6.09375 -3.953125 5.8125 -4.109375 C 5.539062 -4.273438 5.164062 -4.421875 4.6875 -4.546875 L 3.515625 -4.828125 C 2.640625 -5.035156 1.992188 -5.367188 1.578125 -5.828125 C 1.171875 -6.285156 0.96875 -6.863281 0.96875 -7.5625 C 0.96875 -8.0625 1.09375 -8.503906 1.34375 -8.890625 C 1.601562 -9.285156 1.976562 -9.59375 2.46875 -9.8125 C 2.96875 -10.03125 3.554688 -10.140625 4.234375 -10.140625 C 4.984375 -10.140625 5.617188 -10.03125 6.140625 -9.8125 C 6.660156 -9.601562 7.078125 -9.285156 7.390625 -8.859375 L 6.8125 -8.09375 L 6.640625 -8.09375 C 6.347656 -8.445312 6.003906 -8.703125 5.609375 -8.859375 C 5.222656 -9.023438 4.765625 -9.109375 4.234375 -9.109375 C 3.546875 -9.109375 3.023438 -8.972656 2.671875 -8.703125 C 2.316406 -8.441406 2.140625 -8.070312 2.140625 -7.59375 C 2.140625 -7.144531 2.269531 -6.785156 2.53125 -6.515625 C 2.789062 -6.253906 3.226562 -6.050781 3.84375 -5.90625 L 5.03125 -5.609375 C 6.007812 -5.378906 6.710938 -5.03125 7.140625 -4.5625 C 7.578125 -4.09375 7.796875 -3.488281 7.796875 -2.75 C 7.796875 -2.1875 7.671875 -1.6875 7.421875 -1.25 C 7.171875 -0.820312 6.785156 -0.484375 6.265625 -0.234375 C 5.753906 0.015625 5.125 0.140625 4.375 0.140625 Z M 4.375 0.140625 "/></g></g></g><g fill="#1b292a" fill-opacity="1"><g transform="translate(169.642926, 315.721882)"><g><path d="M 7.796875 -10 L 7.796875 -9 L 4.671875 -9 L 4.671875 0 L 3.5 0 L 3.5 -9 L 0.375 -9 L 0.375 -10 Z M 7.796875 -10 "/></g></g></g><g fill="#1b292a" fill-opacity="1"><g transform="translate(179.200481, 315.721882)"><g><path d="M 1.515625 0 L 1.515625 -10 L 5.140625 -10 C 5.804688 -10 6.367188 -9.882812 6.828125 -9.65625 C 7.285156 -9.4375 7.628906 -9.125 7.859375 -8.71875 C 8.085938 -8.320312 8.203125 -7.847656 8.203125 -7.296875 C 8.203125 -6.671875 8.046875 -6.15625 7.734375 -5.75 C 7.421875 -5.351562 6.9375 -5.054688 6.28125 -4.859375 L 6.28125 -4.703125 C 6.601562 -4.578125 6.867188 -4.378906 7.078125 -4.109375 C 7.285156 -3.835938 7.472656 -3.429688 7.640625 -2.890625 L 8.5625 0 L 7.359375 0 L 6.359375 -3.0625 C 6.242188 -3.414062 6.109375 -3.695312 5.953125 -3.90625 C 5.796875 -4.113281 5.597656 -4.257812 5.359375 -4.34375 C 5.117188 -4.4375 4.816406 -4.484375 4.453125 -4.484375 L 2.6875 -4.484375 L 2.6875 0 Z M 5.109375 -5.484375 C 5.734375 -5.484375 6.195312 -5.625 6.5 -5.90625 C 6.8125 -6.195312 6.96875 -6.640625 6.96875 -7.234375 C 6.96875 -7.828125 6.8125 -8.269531 6.5 -8.5625 C 6.195312 -8.851562 5.734375 -9 5.109375 -9 L 2.6875 -9 L 2.6875 -5.484375 Z M 5.109375 -5.484375 "/></g></g></g><g fill="#1b292a" fill-opacity="1"><g transform="translate(189.851176, 315.721882)"><g><path d="M 5.15625 0.140625 C 3.925781 0.140625 2.992188 -0.164062 2.359375 -0.78125 C 1.734375 -1.40625 1.421875 -2.332031 1.421875 -3.5625 L 1.421875 -10 L 2.59375 -10 L 2.59375 -3.5625 C 2.59375 -2.6875 2.800781 -2.03125 3.21875 -1.59375 C 3.644531 -1.15625 4.289062 -0.9375 5.15625 -0.9375 C 6.863281 -0.9375 7.71875 -1.8125 7.71875 -3.5625 L 7.71875 -10 L 8.875 -10 L 8.875 -3.5625 C 8.875 -2.332031 8.5625 -1.40625 7.9375 -0.78125 C 7.3125 -0.164062 6.382812 0.140625 5.15625 0.140625 Z M 5.15625 0.140625 "/></g></g></g><g fill="#1b292a" fill-opacity="1"><g transform="translate(201.547186, 315.721882)"><g><path d="M 5.53125 0.140625 C 4.65625 0.140625 3.875 -0.0546875 3.1875 -0.453125 C 2.5 -0.859375 1.960938 -1.445312 1.578125 -2.21875 C 1.191406 -2.988281 1 -3.914062 1 -5 C 1 -6.082031 1.191406 -7.007812 1.578125 -7.78125 C 1.960938 -8.550781 2.5 -9.132812 3.1875 -9.53125 C 3.875 -9.9375 4.65625 -10.140625 5.53125 -10.140625 C 6.457031 -10.140625 7.226562 -9.960938 7.84375 -9.609375 C 8.46875 -9.253906 8.914062 -8.722656 9.1875 -8.015625 L 8.4375 -7.515625 L 8.265625 -7.515625 C 7.992188 -8.085938 7.640625 -8.488281 7.203125 -8.71875 C 6.765625 -8.957031 6.207031 -9.078125 5.53125 -9.078125 C 4.894531 -9.078125 4.332031 -8.9375 3.84375 -8.65625 C 3.363281 -8.382812 2.976562 -7.941406 2.6875 -7.328125 C 2.394531 -6.722656 2.25 -5.945312 2.25 -5 C 2.25 -4.050781 2.394531 -3.269531 2.6875 -2.65625 C 2.976562 -2.050781 3.363281 -1.609375 3.84375 -1.328125 C 4.332031 -1.054688 4.894531 -0.921875 5.53125 -0.921875 C 6.25 -0.921875 6.835938 -1.082031 7.296875 -1.40625 C 7.753906 -1.726562 8.097656 -2.253906 8.328125 -2.984375 L 8.5 -2.984375 L 9.28125 -2.59375 C 9.039062 -1.707031 8.597656 -1.03125 7.953125 -0.5625 C 7.316406 -0.09375 6.507812 0.140625 5.53125 0.140625 Z M 5.53125 0.140625 "/></g></g></g><g fill="#1b292a" fill-opacity="1"><g transform="translate(212.744451, 315.721882)"><g><path d="M 7.796875 -10 L 7.796875 -9 L 4.671875 -9 L 4.671875 0 L 3.5 0 L 3.5 -9 L 0.375 -9 L 0.375 -10 Z M 7.796875 -10 "/></g></g></g><g fill="#1b292a" fill-opacity="1"><g transform="translate(222.302012, 315.721882)"><g><path d="M 2.6875 0 L 1.515625 0 L 1.515625 -10 L 2.6875 -10 Z M 2.6875 0 "/></g></g></g><g fill="#1b292a" fill-opacity="1"><g transform="translate(227.903769, 315.721882)"><g><path d="M 5.484375 0.140625 C 4.617188 0.140625 3.847656 -0.046875 3.171875 -0.421875 C 2.492188 -0.796875 1.960938 -1.363281 1.578125 -2.125 C 1.191406 -2.894531 1 -3.851562 1 -5 C 1 -6.144531 1.191406 -7.097656 1.578125 -7.859375 C 1.960938 -8.628906 2.492188 -9.203125 3.171875 -9.578125 C 3.847656 -9.953125 4.617188 -10.140625 5.484375 -10.140625 C 6.347656 -10.140625 7.117188 -9.953125 7.796875 -9.578125 C 8.472656 -9.203125 9.003906 -8.628906 9.390625 -7.859375 C 9.773438 -7.097656 9.96875 -6.144531 9.96875 -5 C 9.96875 -3.851562 9.773438 -2.894531 9.390625 -2.125 C 9.003906 -1.363281 8.472656 -0.796875 7.796875 -0.421875 C 7.117188 -0.046875 6.347656 0.140625 5.484375 0.140625 Z M 5.484375 -0.9375 C 6.523438 -0.9375 7.320312 -1.257812 7.875 -1.90625 C 8.425781 -2.5625 8.703125 -3.59375 8.703125 -5 C 8.703125 -6.40625 8.425781 -7.429688 7.875 -8.078125 C 7.320312 -8.722656 6.523438 -9.046875 5.484375 -9.046875 C 3.328125 -9.046875 2.25 -7.695312 2.25 -5 C 2.25 -2.289062 3.328125 -0.9375 5.484375 -0.9375 Z M 5.484375 -0.9375 "/></g></g></g><g fill="#1b292a" fill-opacity="1"><g transform="translate(240.262494, 315.721882)"><g><path d="M 2.65625 0 L 1.515625 0 L 1.515625 -10 L 2.953125 -10 L 7.828125 -2.359375 L 8 -2.390625 L 8 -10 L 9.140625 -10 L 9.140625 0 L 7.90625 0 L 2.828125 -8.171875 L 2.65625 -8.140625 Z M 2.65625 0 "/></g></g></g></svg>